<?xml version="1.0" encoding="utf-8"?>
<!-- Generator: Adobe Illustrator 22.1.0, SVG Export Plug-In . SVG Version: 6.00 Build 0)  -->
<svg version="1.1" id="Layer_1" xmlns="http://www.w3.org/2000/svg" xmlns:xlink="http://www.w3.org/1999/xlink" x="0px" y="0px"
     width="4000px" height="800px" viewBox="0 0 700 140" style="enable-background:new 0 0 700 140;" xml:space="preserve">
<path id="XMLID_708_" style="fill:#F05E4E;" d="M168.5,89.2c0.1,0,0.1,0,0.2,0L200.3,73c-9.4-6.2-58.9-30-78.1-9.8
	c-1.3,1.3-2.6,2.7-3.8,4.1C138.6,70.3,156.3,78.1,168.5,89.2z"/>
<path id="XMLID_509_" style="fill:#B23232;" d="M153.6,78.7l27.5-15.1c-24.8-10.1-38.8-7.1-54.7,2.7c-1,0.6-1.9,1.2-2.8,1.9
	C134.7,70.3,144.8,73.9,153.6,78.7z"/>
<path id="XMLID_506_" style="fill:#6CC294;" d="M93.9,66.2c20-1.1,38.6,2.6,53.9,9.6h0.1c0,0,9.2-7.2,22.7-16.6
	c13.5-9.3,22.3-16,22.3-16c-7-4.8-24.1-9.2-34.8-10.7c-31.8-4.5-57.8,11.1-68.2,34C91.3,66.4,92.6,66.3,93.9,66.2z"/>
<path id="XMLID_503_" style="fill:#4B9F71;" d="M93.9,66.2c15.3-0.8,29.8,1.1,42.6,5.2L149,31.9c-30.6-1-57.1,14-66.1,34.8
	c-0.1,0.2-0.2,0.4-0.2,0.6C86.3,66.8,90.1,66.4,93.9,66.2z"/>
<path id="XMLID_500_" style="fill:#F3DE3C;" d="M93.9,66.2c12.1-0.6,23.8,0.7,34.5,3.1L146,4.7c-13.7-1.1-28.4,0.4-42.8,4.7
	C63.5,21.3,40.1,51,46.7,78.5C60.2,71.6,76.4,67.2,93.9,66.2z"/>
<path id="XMLID_497_" style="fill:#CDAF31;" d="M93.9,66.2c5.3-0.3,10.5-0.2,15.6,0.1L87.9,15.2C57.7,29.4,41,54.7,46.7,78.5
	C60.2,71.6,76.4,67.2,93.9,66.2z"/>
<path id="XMLID_485_" style="fill:#19ABD6;" d="M93.9,66.2c2-0.1,4.1-0.1,6.1-0.2c-1.7-4.1-6.9-16.3-15.1-30.6
	C74.7,17.8,68.3,6.6,68.3,6.6c-15.1,5.6-33.5,15.3-44.2,25.9C0.6,55.9-1.4,84.4,15.6,105.6C29,84,58.7,68.1,93.9,66.2z"/>
<path id="XMLID_483_" style="fill:#F8FAFB;" d="M314.1,38.8L282.3,122c-1,2.5-2.7,3.7-5.4,3.7h-13.7c-2.6,0-4.4-1.2-5.4-3.7
	L226,38.8h16.2l21.4,60.9c1.2,3.3,2.9,8.4,5.2,15.2h2.3l5.4-15.2L298,38.8H314.1z"/>
<path id="XMLID_481_" style="fill:#F8FAFB;" d="M347.1,125.8h-15v-87h15V125.8z"/>
<path id="XMLID_479_" style="fill:#F8FAFB;" d="M415.3,90.6l-25-5.7c-7.1-1.7-12.2-4.3-15.2-8s-4.5-9.1-4.5-16.2
	c0-9.6,2.6-15.4,7.7-18.7c5.1-3.3,13.9-3.1,26.4-3.1c15,0,36.5,0,36.5,0v11.2c0,0-30.3,0-34.3,0c-8.8-0.1-14.6,0.4-17.3,1.6
	c-2.7,1.2-4.1,4-4.1,9.1c0,4.2,0.9,7,2.8,8.6c1.8,1.5,5.1,2.9,9.9,3.9l25.4,5.7c7.1,1.8,12.3,4.4,15.4,7.9c3.2,3.5,4.7,8.8,4.7,16
	c0,10.1-2.5,15.4-8.1,18.7s-13.1,4.4-29,4.4c-12.1,0-33.1,0-33.1,0v-11.6c0,0,20.2,0,30.1,0c10.1,0,16.9-0.8,20.4-2.3
	s5.2-4.1,5.2-9.1c0-3.9-1-6.6-3.1-8.1C423.8,93.1,420.3,91.8,415.3,90.6z"/>
<path id="XMLID_477_" style="fill:#F8FAFB;" d="M481.5,38.8V51c11.6-9.6,22.9-14.4,33.7-14.4c12.1,0,19.5,5.1,22,15.3
	c11.8-10.2,23.4-15.3,35-15.3c7.5,0,13.2,2,17.2,6.1c4,4,6,10,6,17.8v65.2h-15V64.9c-0.1-5.4-1.2-9.3-3.3-11.7s-5.5-3.7-10.3-3.7
	c-4.2,0-8.2,1-12.1,2.9c-3.9,1.9-9.4,5.5-16.5,10.7v62.7h-14.6V64.9c0-5.5-1.1-9.4-3.3-11.8c-2.2-2.4-5.6-3.6-10.3-3.6
	c-4.2,0-8.2,1-12,2.9c-3.9,1.9-9.4,5.4-16.5,10.5v62.8h-15.2V38.8H481.5z"/>
<path id="XMLID_474_" style="fill:#F8FAFB;" d="M675,89.7h-40.5c0.8,10,3.3,16.7,7.3,20.2s10.8,4.2,20.2,4.2c9.9,0,30.2,0,30.2,0
	v11.6c0,0-17.4,0-32.1,0c-15,0-25.7-1.3-32-8.3c-6.4-7-9.5-18.8-9.5-35.4c0-16.8,3.1-28.5,9.3-35.3c6.2-6.7,16.4-10.1,30.7-10.1
	c13,0,22.4,2.4,28.4,7c5.9,4.7,8.9,11.8,8.9,21.3C696,81.5,689.1,89.7,675,89.7z M634.3,77.9h36.8c6.3,0,9.5-4.3,9.5-12.9
	c-0.1-5.6-1.8-9.6-5-12s-8.7-3.6-16.4-3.6c-9.2,0-15.5,2-19.1,6C636.5,59.5,634.5,67,634.3,77.9z"/>
<path id="XMLID_330_" style="fill:#F8FAFB;" d="M119.4,96l-19.6,13.7l7.1-20.9c-2.3-0.6-4.6-0.9-7.1-0.9c-14,0-25.3,9.9-25.3,22
	c0,12.2,11.3,22,25.3,22s25.3-9.9,25.3-22C125.1,104.7,122.9,99.8,119.4,96z"/>
</svg>
